<mxfile host="65bd71144e">
    <diagram id="n9lYHRW8GsoqBtt6Vcze" name="Page-1">
        <mxGraphModel dx="3223" dy="2147" grid="0" gridSize="10" guides="1" tooltips="1" connect="1" arrows="1" fold="1" page="1" pageScale="1" pageWidth="827" pageHeight="583" math="0" shadow="0">
            <root>
                <mxCell id="0"/>
                <mxCell id="1" parent="0"/>
                <mxCell id="67" value="&lt;b&gt;Admin&lt;/b&gt;" style="shape=umlActor;verticalLabelPosition=bottom;verticalAlign=top;html=1;outlineConnect=0;fontSize=15;" parent="1" vertex="1">
                    <mxGeometry x="-704" y="257" width="30" height="60" as="geometry"/>
                </mxCell>
                <mxCell id="75" style="edgeStyle=none;html=1;exitX=0;exitY=1;exitDx=0;exitDy=0;endArrow=none;endFill=0;fontSize=15;" parent="1" source="72" edge="1">
                    <mxGeometry relative="1" as="geometry">
                        <mxPoint x="-574.0000000000043" y="287" as="sourcePoint"/>
                        <mxPoint x="-669" y="282" as="targetPoint"/>
                    </mxGeometry>
                </mxCell>
                <mxCell id="70" value="2.&amp;nbsp; Manage user" style="ellipse;whiteSpace=wrap;html=1;fillColor=#dae8fc;strokeColor=#6c8ebf;fontSize=15;fontStyle=1" parent="1" vertex="1">
                    <mxGeometry x="-493" y="197" width="120" height="80" as="geometry"/>
                </mxCell>
                <mxCell id="71" value="3.&amp;nbsp; Manage profile" style="ellipse;whiteSpace=wrap;html=1;fillColor=#dae8fc;strokeColor=#6c8ebf;fontSize=15;fontStyle=1" parent="1" vertex="1">
                    <mxGeometry x="-513" y="346" width="120" height="80" as="geometry"/>
                </mxCell>
                <mxCell id="72" value="1.&amp;nbsp; Analysis" style="ellipse;whiteSpace=wrap;html=1;fillColor=#dae8fc;strokeColor=#6c8ebf;fontSize=15;fontStyle=1" parent="1" vertex="1">
                    <mxGeometry x="-561" y="73" width="120" height="80" as="geometry"/>
                </mxCell>
                <mxCell id="73" value="4. Logout" style="ellipse;whiteSpace=wrap;html=1;fillColor=#dae8fc;strokeColor=#6c8ebf;fontSize=15;fontStyle=1" parent="1" vertex="1">
                    <mxGeometry x="-659" y="437" width="120" height="80" as="geometry"/>
                </mxCell>
                <mxCell id="82" value="2.1&amp;nbsp; Block/unblock user" style="ellipse;whiteSpace=wrap;html=1;fillColor=#d5e8d4;strokeColor=#82b366;fontSize=15;" parent="1" vertex="1">
                    <mxGeometry x="-209" y="185" width="120" height="80" as="geometry"/>
                </mxCell>
                <mxCell id="83" value="2.2&amp;nbsp; Verify user" style="ellipse;whiteSpace=wrap;html=1;fillColor=#d5e8d4;strokeColor=#82b366;fontSize=15;" parent="1" vertex="1">
                    <mxGeometry x="-205" y="296" width="120" height="80" as="geometry"/>
                </mxCell>
                <mxCell id="84" value="&amp;lt;&amp;lt;extend&amp;gt;&amp;gt;" style="html=1;verticalAlign=bottom;labelBackgroundColor=none;endArrow=open;endFill=0;dashed=1;exitX=0;exitY=0.5;exitDx=0;exitDy=0;entryX=1;entryY=0.5;entryDx=0;entryDy=0;fontSize=15;" parent="1" source="82" target="70" edge="1">
                    <mxGeometry width="160" relative="1" as="geometry">
                        <mxPoint x="-374" y="367" as="sourcePoint"/>
                        <mxPoint x="-461.57359312880715" y="398.715728752538" as="targetPoint"/>
                    </mxGeometry>
                </mxCell>
                <mxCell id="85" value="&amp;lt;&amp;lt;extend&amp;gt;&amp;gt;" style="html=1;verticalAlign=bottom;labelBackgroundColor=none;endArrow=open;endFill=0;dashed=1;exitX=0;exitY=0.5;exitDx=0;exitDy=0;entryX=1;entryY=1;entryDx=0;entryDy=0;fontSize=15;" parent="1" source="83" target="70" edge="1">
                    <mxGeometry width="160" relative="1" as="geometry">
                        <mxPoint x="-164" y="327" as="sourcePoint"/>
                        <mxPoint x="-254" y="367" as="targetPoint"/>
                    </mxGeometry>
                </mxCell>
                <mxCell id="86" value="3.1&amp;nbsp; Change profile" style="ellipse;whiteSpace=wrap;html=1;fillColor=#d5e8d4;strokeColor=#82b366;fontSize=15;" parent="1" vertex="1">
                    <mxGeometry x="-290" y="422" width="120" height="80" as="geometry"/>
                </mxCell>
                <mxCell id="87" value="&amp;lt;&amp;lt;extend&amp;gt;&amp;gt;" style="html=1;verticalAlign=bottom;labelBackgroundColor=none;endArrow=open;endFill=0;dashed=1;exitX=0;exitY=0;exitDx=0;exitDy=0;entryX=1;entryY=1;entryDx=0;entryDy=0;fontSize=15;" parent="1" source="86" target="71" edge="1">
                    <mxGeometry width="160" relative="1" as="geometry">
                        <mxPoint x="-386.42640687119297" y="468.7157287525381" as="sourcePoint"/>
                        <mxPoint x="-461.57359312880715" y="455.284271247462" as="targetPoint"/>
                    </mxGeometry>
                </mxCell>
                <mxCell id="88" value="2.1&amp;nbsp; &amp;nbsp;Login user" style="ellipse;whiteSpace=wrap;html=1;fillColor=#d5e8d4;strokeColor=#82b366;fontSize=15;" parent="1" vertex="1">
                    <mxGeometry x="-216" y="60" width="120" height="80" as="geometry"/>
                </mxCell>
                <mxCell id="89" value="&amp;lt;&amp;lt;extend&amp;gt;&amp;gt;" style="html=1;verticalAlign=bottom;labelBackgroundColor=none;endArrow=open;endFill=0;dashed=1;exitX=0;exitY=1;exitDx=0;exitDy=0;entryX=1;entryY=0;entryDx=0;entryDy=0;fontSize=15;" parent="1" source="88" target="70" edge="1">
                    <mxGeometry width="160" relative="1" as="geometry">
                        <mxPoint x="-164" y="327" as="sourcePoint"/>
                        <mxPoint x="-254" y="367" as="targetPoint"/>
                    </mxGeometry>
                </mxCell>
                <mxCell id="92" style="edgeStyle=none;html=1;exitX=0;exitY=0.5;exitDx=0;exitDy=0;endArrow=none;endFill=0;fontSize=15;" parent="1" source="70" edge="1">
                    <mxGeometry relative="1" as="geometry">
                        <mxPoint x="-533.426406871187" y="151.28427124745815" as="sourcePoint"/>
                        <mxPoint x="-664" y="287" as="targetPoint"/>
                    </mxGeometry>
                </mxCell>
                <mxCell id="93" style="edgeStyle=none;html=1;exitX=0;exitY=0.5;exitDx=0;exitDy=0;endArrow=none;endFill=0;fontSize=15;" parent="1" source="71" edge="1">
                    <mxGeometry relative="1" as="geometry">
                        <mxPoint x="-523.426406871187" y="161.28427124745815" as="sourcePoint"/>
                        <mxPoint x="-668" y="292" as="targetPoint"/>
                    </mxGeometry>
                </mxCell>
                <mxCell id="94" style="edgeStyle=none;html=1;exitX=0.5;exitY=0;exitDx=0;exitDy=0;endArrow=none;endFill=0;fontSize=15;" parent="1" source="73" edge="1">
                    <mxGeometry relative="1" as="geometry">
                        <mxPoint x="-513.426406871187" y="171.28427124745815" as="sourcePoint"/>
                        <mxPoint x="-671" y="294" as="targetPoint"/>
                    </mxGeometry>
                </mxCell>
                <mxCell id="95" value="&lt;font style=&quot;font-size: 19px;&quot;&gt;System name&lt;/font&gt;" style="shape=umlFrame;whiteSpace=wrap;html=1;width=410;height=83;boundedLbl=1;verticalAlign=middle;align=left;spacingLeft=5;fontSize=19;fontStyle=1" parent="1" vertex="1">
                    <mxGeometry x="450" y="-547" width="904" height="1318" as="geometry"/>
                </mxCell>
                <mxCell id="96" value="User" style="shape=umlActor;verticalLabelPosition=bottom;verticalAlign=top;html=1;outlineConnect=0;fontSize=23;" parent="1" vertex="1">
                    <mxGeometry x="291" y="129" width="30" height="60" as="geometry"/>
                </mxCell>
                <mxCell id="98" value="&lt;b style=&quot;font-size: 19px;&quot;&gt;3.2 Manage Profile&amp;nbsp;&lt;/b&gt;" style="ellipse;whiteSpace=wrap;html=1;fillColor=#dae8fc;strokeColor=#6c8ebf;fontSize=19;" parent="1" vertex="1">
                    <mxGeometry x="532" y="-275" width="246" height="118" as="geometry"/>
                </mxCell>
                <mxCell id="99" value="&lt;b style=&quot;font-size: 19px;&quot;&gt;3.2.5 Manage Post&amp;nbsp;&lt;/b&gt;" style="ellipse;whiteSpace=wrap;html=1;fillColor=#dae8fc;strokeColor=#6c8ebf;fontSize=19;" parent="1" vertex="1">
                    <mxGeometry x="853" y="-190" width="166.5" height="80" as="geometry"/>
                </mxCell>
                <mxCell id="100" value="&amp;lt;&amp;lt;extend&amp;gt;&amp;gt;" style="html=1;verticalAlign=bottom;labelBackgroundColor=none;endArrow=open;endFill=0;dashed=1;entryX=0.945;entryY=0.741;entryDx=0;entryDy=0;exitX=0.5;exitY=0;exitDx=0;exitDy=0;entryPerimeter=0;fontSize=19;" parent="1" source="99" target="98" edge="1">
                    <mxGeometry width="160" relative="1" as="geometry">
                        <mxPoint x="908.5735931287923" y="313.7157287525281" as="sourcePoint"/>
                        <mxPoint x="711" y="192" as="targetPoint"/>
                    </mxGeometry>
                </mxCell>
                <mxCell id="101" value="&lt;b style=&quot;font-size: 19px;&quot;&gt;3.2.5.1 Delete post&lt;/b&gt;" style="ellipse;whiteSpace=wrap;html=1;fillColor=#dae8fc;strokeColor=#6c8ebf;fontSize=19;" parent="1" vertex="1">
                    <mxGeometry x="1027" y="-94" width="137.5" height="80" as="geometry"/>
                </mxCell>
                <mxCell id="102" value="&amp;lt;&amp;lt;extend&amp;gt;&amp;gt;" style="html=1;verticalAlign=bottom;labelBackgroundColor=none;endArrow=open;endFill=0;dashed=1;entryX=1;entryY=0.5;entryDx=0;entryDy=0;exitX=0;exitY=0.5;exitDx=0;exitDy=0;fontSize=19;" parent="1" source="101" target="99" edge="1">
                    <mxGeometry width="160" relative="1" as="geometry">
                        <mxPoint x="921.5735931287923" y="346.4357287525281" as="sourcePoint"/>
                        <mxPoint x="746.4264068711927" y="333.00427124746216" as="targetPoint"/>
                    </mxGeometry>
                </mxCell>
                <mxCell id="104" value="&lt;b style=&quot;font-size: 19px;&quot;&gt;3.2.1 Change password&lt;/b&gt;" style="ellipse;whiteSpace=wrap;html=1;fillColor=#d5e8d4;strokeColor=#82b366;fontSize=19;" parent="1" vertex="1">
                    <mxGeometry x="968" y="-408" width="200" height="69" as="geometry"/>
                </mxCell>
                <mxCell id="105" value="&lt;b style=&quot;font-size: 19px;&quot;&gt;3.2.2 Change information user&lt;/b&gt;" style="ellipse;whiteSpace=wrap;html=1;fillColor=#d5e8d4;strokeColor=#82b366;fontSize=19;" parent="1" vertex="1">
                    <mxGeometry x="811" y="-456" width="161" height="76" as="geometry"/>
                </mxCell>
                <mxCell id="106" value="&lt;b style=&quot;font-size: 19px;&quot;&gt;3.2.3 See all followers&lt;/b&gt;" style="ellipse;whiteSpace=wrap;html=1;fillColor=#d5e8d4;strokeColor=#82b366;fontSize=19;" parent="1" vertex="1">
                    <mxGeometry x="953" y="-320" width="191" height="64" as="geometry"/>
                </mxCell>
                <mxCell id="107" value="&lt;b style=&quot;font-size: 19px;&quot;&gt;3.2.4 See all following&lt;/b&gt;" style="ellipse;whiteSpace=wrap;html=1;fillColor=#d5e8d4;strokeColor=#82b366;fontSize=19;" parent="1" vertex="1">
                    <mxGeometry x="1100" y="-249" width="184" height="76" as="geometry"/>
                </mxCell>
                <mxCell id="108" value="&lt;b style=&quot;font-size: 19px;&quot;&gt;3.4.3 Unfollow&lt;/b&gt;" style="ellipse;whiteSpace=wrap;html=1;fillColor=#d5e8d4;strokeColor=#82b366;fontSize=19;" parent="1" vertex="1">
                    <mxGeometry x="1189" y="-125" width="126" height="81" as="geometry"/>
                </mxCell>
                <mxCell id="109" value="&amp;lt;&amp;lt;extend&amp;gt;&amp;gt;" style="html=1;verticalAlign=bottom;labelBackgroundColor=none;endArrow=open;endFill=0;dashed=1;entryX=0.5;entryY=1;entryDx=0;entryDy=0;exitX=0.5;exitY=0;exitDx=0;exitDy=0;fontSize=19;" parent="1" source="108" target="107" edge="1">
                    <mxGeometry width="160" relative="1" as="geometry">
                        <mxPoint x="1142.96" y="68.03999999999996" as="sourcePoint"/>
                        <mxPoint x="1031.999999999989" y="97" as="targetPoint"/>
                    </mxGeometry>
                </mxCell>
                <mxCell id="111" value="&amp;lt;&amp;lt;extend&amp;gt;&amp;gt;" style="html=1;verticalAlign=bottom;labelBackgroundColor=none;endArrow=open;endFill=0;dashed=1;entryX=1;entryY=0;entryDx=0;entryDy=0;fontSize=19;" parent="1" source="105" target="98" edge="1">
                    <mxGeometry width="160" relative="1" as="geometry">
                        <mxPoint x="939" y="-168" as="sourcePoint"/>
                        <mxPoint x="865" y="-275" as="targetPoint"/>
                    </mxGeometry>
                </mxCell>
                <mxCell id="112" value="&amp;lt;&amp;lt;extend&amp;gt;&amp;gt;" style="html=1;verticalAlign=bottom;labelBackgroundColor=none;endArrow=open;endFill=0;dashed=1;exitX=0;exitY=0.5;exitDx=0;exitDy=0;entryX=0.958;entryY=0.295;entryDx=0;entryDy=0;entryPerimeter=0;fontSize=19;" parent="1" source="104" target="98" edge="1">
                    <mxGeometry width="160" relative="1" as="geometry">
                        <mxPoint x="1191.0453495017337" y="-422.9597421386643" as="sourcePoint"/>
                        <mxPoint x="863" y="-276" as="targetPoint"/>
                    </mxGeometry>
                </mxCell>
                <mxCell id="113" value="&amp;lt;&amp;lt;extend&amp;gt;&amp;gt;" style="html=1;verticalAlign=bottom;labelBackgroundColor=none;endArrow=open;endFill=0;dashed=1;exitX=0;exitY=0.5;exitDx=0;exitDy=0;entryX=0.991;entryY=0.415;entryDx=0;entryDy=0;fontSize=19;entryPerimeter=0;" parent="1" source="106" target="98" edge="1">
                    <mxGeometry width="160" relative="1" as="geometry">
                        <mxPoint x="1183" y="-317" as="sourcePoint"/>
                        <mxPoint x="873" y="-266" as="targetPoint"/>
                    </mxGeometry>
                </mxCell>
                <mxCell id="114" value="&amp;lt;&amp;lt;extend&amp;gt;&amp;gt;" style="html=1;verticalAlign=bottom;labelBackgroundColor=none;endArrow=open;endFill=0;dashed=1;exitX=0;exitY=0.5;exitDx=0;exitDy=0;fontSize=19;" parent="1" source="107" target="98" edge="1">
                    <mxGeometry width="160" relative="1" as="geometry">
                        <mxPoint x="1203.0000000000118" y="-303" as="sourcePoint"/>
                        <mxPoint x="966.9999999999941" y="-340" as="targetPoint"/>
                    </mxGeometry>
                </mxCell>
                <mxCell id="115" value="&lt;b style=&quot;font-size: 19px;&quot;&gt;3.2 Search other user&lt;/b&gt;" style="ellipse;whiteSpace=wrap;html=1;fillColor=#dae8fc;strokeColor=#6c8ebf;fontSize=19;" parent="1" vertex="1">
                    <mxGeometry x="514.5" y="-128" width="244" height="111" as="geometry"/>
                </mxCell>
                <mxCell id="116" value="&lt;b style=&quot;font-size: 19px;&quot;&gt;3.1 Logout&lt;/b&gt;" style="ellipse;whiteSpace=wrap;html=1;fillColor=#dae8fc;strokeColor=#6c8ebf;fontSize=19;" parent="1" vertex="1">
                    <mxGeometry x="523.75" y="-413" width="220.5" height="84" as="geometry"/>
                </mxCell>
                <mxCell id="119" value="&lt;b style=&quot;font-size: 19px;&quot;&gt;3.4 Viewing wall&lt;/b&gt;" style="ellipse;whiteSpace=wrap;html=1;fillColor=#dae8fc;strokeColor=#6c8ebf;fontSize=19;" parent="1" vertex="1">
                    <mxGeometry x="535" y="245" width="216" height="111" as="geometry"/>
                </mxCell>
                <mxCell id="120" value="&lt;b style=&quot;font-size: 19px;&quot;&gt;3.6 Messenger&amp;nbsp;&lt;/b&gt;" style="ellipse;whiteSpace=wrap;html=1;fillColor=#dae8fc;strokeColor=#6c8ebf;fontSize=19;" parent="1" vertex="1">
                    <mxGeometry x="537.5" y="606" width="198" height="114" as="geometry"/>
                </mxCell>
                <mxCell id="122" value="&lt;b style=&quot;font-size: 19px;&quot;&gt;3.2.1 Add new follow&lt;/b&gt;" style="ellipse;whiteSpace=wrap;html=1;fillColor=#d5e8d4;strokeColor=#82b366;fontSize=19;" parent="1" vertex="1">
                    <mxGeometry x="867" y="15" width="176" height="109" as="geometry"/>
                </mxCell>
                <mxCell id="123" value="&lt;b style=&quot;font-size: 19px;&quot;&gt;3.3 Suggestions follow&lt;/b&gt;" style="ellipse;whiteSpace=wrap;html=1;fillColor=#dae8fc;strokeColor=#6c8ebf;fontSize=19;" parent="1" vertex="1">
                    <mxGeometry x="510" y="60" width="225.5" height="104" as="geometry"/>
                </mxCell>
                <mxCell id="124" value="&lt;b style=&quot;font-size: 19px;&quot;&gt;3.5 Create new post&lt;/b&gt;" style="ellipse;whiteSpace=wrap;html=1;fillColor=#dae8fc;strokeColor=#6c8ebf;fontSize=19;" parent="1" vertex="1">
                    <mxGeometry x="541" y="416" width="199" height="119" as="geometry"/>
                </mxCell>
                <mxCell id="129" value="&amp;lt;&amp;lt;extend&amp;gt;&amp;gt;" style="html=1;verticalAlign=bottom;labelBackgroundColor=none;endArrow=open;endFill=0;dashed=1;entryX=1;entryY=0.5;entryDx=0;entryDy=0;fontSize=19;exitX=0;exitY=0.5;exitDx=0;exitDy=0;" parent="1" source="122" target="123" edge="1">
                    <mxGeometry width="160" relative="1" as="geometry">
                        <mxPoint x="1057" y="-78" as="sourcePoint"/>
                        <mxPoint x="1032" y="-174" as="targetPoint"/>
                    </mxGeometry>
                </mxCell>
                <mxCell id="130" value="&lt;b style=&quot;font-size: 19px;&quot;&gt;3.4.1 Viewing profile&lt;/b&gt;" style="ellipse;whiteSpace=wrap;html=1;fillColor=#d5e8d4;strokeColor=#82b366;fontSize=19;" parent="1" vertex="1">
                    <mxGeometry x="846" y="491" width="211" height="97" as="geometry"/>
                </mxCell>
                <mxCell id="131" value="&lt;b style=&quot;font-size: 19px;&quot;&gt;3.4.2 Block user&lt;/b&gt;" style="ellipse;whiteSpace=wrap;html=1;fillColor=#d5e8d4;strokeColor=#82b366;fontSize=19;" parent="1" vertex="1">
                    <mxGeometry x="1144" y="414" width="159" height="77" as="geometry"/>
                </mxCell>
                <mxCell id="132" value="&lt;b style=&quot;font-size: 19px;&quot;&gt;3.4.3 Unfollow&lt;/b&gt;" style="ellipse;whiteSpace=wrap;html=1;fillColor=#d5e8d4;strokeColor=#82b366;fontSize=19;" parent="1" vertex="1">
                    <mxGeometry x="1132" y="576" width="167" height="74" as="geometry"/>
                </mxCell>
                <mxCell id="133" value="&lt;b style=&quot;font-size: 19px;&quot;&gt;3.4.2.1 Unblock&lt;/b&gt;" style="ellipse;whiteSpace=wrap;html=1;fillColor=#d5e8d4;strokeColor=#82b366;fontSize=19;" parent="1" vertex="1">
                    <mxGeometry x="943" y="682" width="185" height="71" as="geometry"/>
                </mxCell>
                <mxCell id="134" value="&lt;b style=&quot;font-size: 19px;&quot;&gt;3.7.1 Like&lt;/b&gt;" style="ellipse;whiteSpace=wrap;html=1;fillColor=#d5e8d4;strokeColor=#82b366;fontSize=19;" parent="1" vertex="1">
                    <mxGeometry x="890" y="164" width="204" height="82" as="geometry"/>
                </mxCell>
                <mxCell id="135" value="&lt;b style=&quot;font-size: 19px;&quot;&gt;3.7.2 Comment&lt;/b&gt;" style="ellipse;whiteSpace=wrap;html=1;fillColor=#d5e8d4;strokeColor=#82b366;fontSize=19;" parent="1" vertex="1">
                    <mxGeometry x="874" y="304" width="204" height="73" as="geometry"/>
                </mxCell>
                <mxCell id="136" value="&amp;lt;&amp;lt;extend&amp;gt;&amp;gt;" style="html=1;verticalAlign=bottom;labelBackgroundColor=none;endArrow=open;endFill=0;dashed=1;fontSize=19;exitX=0;exitY=0.5;exitDx=0;exitDy=0;entryX=0.895;entryY=0.176;entryDx=0;entryDy=0;entryPerimeter=0;" parent="1" source="131" target="130" edge="1">
                    <mxGeometry width="160" relative="1" as="geometry">
                        <mxPoint x="1162" y="483" as="sourcePoint"/>
                        <mxPoint x="1065" y="493" as="targetPoint"/>
                    </mxGeometry>
                </mxCell>
                <mxCell id="137" value="&amp;lt;&amp;lt;extend&amp;gt;&amp;gt;" style="html=1;verticalAlign=bottom;labelBackgroundColor=none;endArrow=open;endFill=0;dashed=1;fontSize=19;exitX=0;exitY=0.5;exitDx=0;exitDy=0;entryX=1;entryY=1;entryDx=0;entryDy=0;" parent="1" source="132" target="130" edge="1">
                    <mxGeometry width="160" relative="1" as="geometry">
                        <mxPoint x="1180" y="488" as="sourcePoint"/>
                        <mxPoint x="1083" y="498" as="targetPoint"/>
                    </mxGeometry>
                </mxCell>
                <mxCell id="138" value="&amp;lt;&amp;lt;extend&amp;gt;&amp;gt;" style="html=1;verticalAlign=bottom;labelBackgroundColor=none;endArrow=open;endFill=0;dashed=1;fontSize=19;exitX=0;exitY=0;exitDx=0;exitDy=0;entryX=0.5;entryY=1;entryDx=0;entryDy=0;" parent="1" source="133" target="130" edge="1">
                    <mxGeometry width="160" relative="1" as="geometry">
                        <mxPoint x="1186.0000000000114" y="520" as="sourcePoint"/>
                        <mxPoint x="1086.315952910999" y="473.78339345011" as="targetPoint"/>
                    </mxGeometry>
                </mxCell>
                <mxCell id="139" value="&amp;lt;&amp;lt;extend&amp;gt;&amp;gt;" style="html=1;verticalAlign=bottom;labelBackgroundColor=none;endArrow=open;endFill=0;dashed=1;fontSize=19;exitX=0;exitY=0.5;exitDx=0;exitDy=0;entryX=1;entryY=0.5;entryDx=0;entryDy=0;" parent="1" source="130" target="120" edge="1">
                    <mxGeometry width="160" relative="1" as="geometry">
                        <mxPoint x="1182.0000000000114" y="633" as="sourcePoint"/>
                        <mxPoint x="1065.0771487858183" y="486.35014515804824" as="targetPoint"/>
                    </mxGeometry>
                </mxCell>
                <mxCell id="140" value="&amp;lt;&amp;lt;extend&amp;gt;&amp;gt;" style="html=1;verticalAlign=bottom;labelBackgroundColor=none;endArrow=open;endFill=0;dashed=1;exitX=0;exitY=0.5;exitDx=0;exitDy=0;fontSize=19;" parent="1" source="135" target="119" edge="1">
                    <mxGeometry width="160" relative="1" as="geometry">
                        <mxPoint x="1216" y="403" as="sourcePoint"/>
                        <mxPoint x="1111.4264068711927" y="497.7157287525374" as="targetPoint"/>
                    </mxGeometry>
                </mxCell>
                <mxCell id="142" value="&amp;lt;&amp;lt;extend&amp;gt;&amp;gt;" style="html=1;verticalAlign=bottom;labelBackgroundColor=none;endArrow=open;endFill=0;dashed=1;exitX=0;exitY=0;exitDx=0;exitDy=0;fontSize=19;entryX=1;entryY=1;entryDx=0;entryDy=0;" parent="1" source="130" target="119" edge="1">
                    <mxGeometry width="160" relative="1" as="geometry">
                        <mxPoint x="910.0000000000109" y="376" as="sourcePoint"/>
                        <mxPoint x="1028.9999999999886" y="349" as="targetPoint"/>
                    </mxGeometry>
                </mxCell>
                <mxCell id="143" value="&amp;lt;&amp;lt;extend&amp;gt;&amp;gt;" style="html=1;verticalAlign=bottom;labelBackgroundColor=none;endArrow=open;endFill=0;dashed=1;exitX=0;exitY=1;exitDx=0;exitDy=0;fontSize=19;entryX=0.831;entryY=0.138;entryDx=0;entryDy=0;entryPerimeter=0;" parent="1" source="122" target="119" edge="1">
                    <mxGeometry width="160" relative="1" as="geometry">
                        <mxPoint x="882.4264068712082" y="337.7157287525283" as="sourcePoint"/>
                        <mxPoint x="1042" y="263" as="targetPoint"/>
                    </mxGeometry>
                </mxCell>
                <mxCell id="149" value="" style="endArrow=none;html=1;fontSize=19;entryX=0;entryY=0.5;entryDx=0;entryDy=0;" parent="1" target="123" edge="1">
                    <mxGeometry width="50" height="50" relative="1" as="geometry">
                        <mxPoint x="339" y="156" as="sourcePoint"/>
                        <mxPoint x="348" y="249" as="targetPoint"/>
                    </mxGeometry>
                </mxCell>
                <mxCell id="150" value="" style="endArrow=none;html=1;fontSize=19;entryX=0;entryY=0.5;entryDx=0;entryDy=0;" parent="1" target="119" edge="1">
                    <mxGeometry width="50" height="50" relative="1" as="geometry">
                        <mxPoint x="340" y="166" as="sourcePoint"/>
                        <mxPoint x="524.4999999999973" y="76.99999999999977" as="targetPoint"/>
                    </mxGeometry>
                </mxCell>
                <mxCell id="151" value="" style="endArrow=none;html=1;fontSize=19;entryX=0;entryY=0.5;entryDx=0;entryDy=0;" parent="1" target="124" edge="1">
                    <mxGeometry width="50" height="50" relative="1" as="geometry">
                        <mxPoint x="342" y="176" as="sourcePoint"/>
                        <mxPoint x="534.4999999999973" y="86.99999999999977" as="targetPoint"/>
                    </mxGeometry>
                </mxCell>
                <mxCell id="152" value="" style="endArrow=none;html=1;fontSize=19;entryX=0;entryY=0.5;entryDx=0;entryDy=0;" parent="1" target="120" edge="1">
                    <mxGeometry width="50" height="50" relative="1" as="geometry">
                        <mxPoint x="337" y="186" as="sourcePoint"/>
                        <mxPoint x="544.4999999999973" y="96.99999999999977" as="targetPoint"/>
                    </mxGeometry>
                </mxCell>
                <mxCell id="153" value="" style="endArrow=none;html=1;fontSize=19;entryX=0;entryY=0.5;entryDx=0;entryDy=0;" parent="1" target="115" edge="1">
                    <mxGeometry width="50" height="50" relative="1" as="geometry">
                        <mxPoint x="336" y="146" as="sourcePoint"/>
                        <mxPoint x="554.4999999999973" y="106.99999999999977" as="targetPoint"/>
                    </mxGeometry>
                </mxCell>
                <mxCell id="154" value="" style="endArrow=none;html=1;fontSize=19;entryX=0;entryY=0.5;entryDx=0;entryDy=0;" parent="1" target="98" edge="1">
                    <mxGeometry width="50" height="50" relative="1" as="geometry">
                        <mxPoint x="331" y="130" as="sourcePoint"/>
                        <mxPoint x="564.4999999999973" y="116.99999999999977" as="targetPoint"/>
                    </mxGeometry>
                </mxCell>
                <mxCell id="155" value="" style="endArrow=none;html=1;fontSize=19;entryX=0;entryY=1;entryDx=0;entryDy=0;" parent="1" target="116" edge="1">
                    <mxGeometry width="50" height="50" relative="1" as="geometry">
                        <mxPoint x="321" y="118" as="sourcePoint"/>
                        <mxPoint x="574.4999999999973" y="126.99999999999977" as="targetPoint"/>
                    </mxGeometry>
                </mxCell>
                <mxCell id="156" value="&amp;lt;&amp;lt;extend&amp;gt;&amp;gt;" style="html=1;verticalAlign=bottom;labelBackgroundColor=none;endArrow=open;endFill=0;dashed=1;exitX=0;exitY=0.5;exitDx=0;exitDy=0;fontSize=19;entryX=0.966;entryY=0.326;entryDx=0;entryDy=0;entryPerimeter=0;" parent="1" source="134" target="119" edge="1">
                    <mxGeometry width="160" relative="1" as="geometry">
                        <mxPoint x="883.9999999999995" y="350.50000000000045" as="sourcePoint"/>
                        <mxPoint x="755.3383521448718" y="328.23372167131356" as="targetPoint"/>
                    </mxGeometry>
                </mxCell>
            </root>
        </mxGraphModel>
    </diagram>
</mxfile>